<svg xmlns="http://www.w3.org/2000/svg" viewBox="0 0 64 64"><defs><style>.cls-1{fill:#fff;}</style></defs><title>icono</title><g id="info"><path class="cls-1" d="M22.87,7.57a11.33,11.33,0,0,1,2.82-2.41,17.42,17.42,0,0,1,3.36-1.61,16,16,0,0,1,3.64-.83,8.52,8.52,0,0,1,3.7.33,15.55,15.55,0,0,0-3.58.41,29.1,29.1,0,0,0-3.44,1,34.18,34.18,0,0,0-3.32,1.36A29.57,29.57,0,0,0,22.87,7.57Z"/><path class="cls-1" d="M8.47,48.1A14.65,14.65,0,0,1,6.1,44.26a17.11,17.11,0,0,1-1.22-4.38,17.51,17.51,0,0,1,0-4.54A15.87,15.87,0,0,1,6,31,39.38,39.38,0,0,0,5.6,35.4a25.8,25.8,0,0,0,.24,4.35A24.68,24.68,0,0,0,6.8,44,32,32,0,0,0,8.47,48.1Z"/><path class="cls-1" d="M44.86,52.68a13.12,13.12,0,0,1-3,4.31,13.55,13.55,0,0,1-4.53,2.84,13.93,13.93,0,0,1-5.28.81,16.26,16.26,0,0,1-5.17-1,29,29,0,0,0,5.16.3,16.43,16.43,0,0,0,5-1,15.78,15.78,0,0,0,4.38-2.5A19.92,19.92,0,0,0,44.86,52.68Z"/><path class="cls-1" d="M20.73,8.13a17.62,17.62,0,0,1,3-3.65,17.39,17.39,0,0,1,4-2.64A22.21,22.21,0,0,1,37.16,0,32.52,32.52,0,0,1,42,.37a21.17,21.17,0,0,1,4.73,1.22,27.57,27.57,0,0,1,8.22,5.12,23.2,23.2,0,0,1,5.84,7.77,18.11,18.11,0,0,1,1.57,9.61,15.59,15.59,0,0,1-4.11,8.72,12.73,12.73,0,0,1-3.91,2.81c-1.45.7-3,.93-4.29,1.9a7.47,7.47,0,0,1,2-1.32c.71-.35,1.43-.65,2.08-1.06a13.49,13.49,0,0,0,1.87-1.33,13.64,13.64,0,0,0,1.58-1.64,15.09,15.09,0,0,0,3.33-8.25,17.2,17.2,0,0,0-1.73-8.69,20.41,20.41,0,0,0-2.35-3.82,24.58,24.58,0,0,0-3.12-3.28A26.34,26.34,0,0,0,46,3.27,19.41,19.41,0,0,0,41.69,2a38.53,38.53,0,0,0-4.57-.53,22.54,22.54,0,0,0-9,1.21,17.52,17.52,0,0,0-4,2.19l-.91.72c-.31.24-.56.53-.85.79l-.43.4c-.14.14-.26.29-.39.44Z"/><path class="cls-1" d="M13.33,56.52a22.08,22.08,0,0,1-6-4.36,20.9,20.9,0,0,1-4.08-6.29,22.16,22.16,0,0,1-1.7-7.36A24.61,24.61,0,0,1,2.38,31a25.28,25.28,0,0,1,3-6.92,33.29,33.29,0,0,1,4.8-5.74c3.51-3.47,7.35-6.43,10.5-10.19A37.53,37.53,0,0,1,16.28,14c-1.64,1.82-3.35,3.57-5,5.36A36.5,36.5,0,0,0,7,25a24.24,24.24,0,0,0-2.74,6.47,23.16,23.16,0,0,0,.45,13.86,22,22,0,0,0,3.4,6.21A26.84,26.84,0,0,0,13.33,56.52Z"/><path class="cls-1" d="M50,37.52a5.84,5.84,0,0,0-1.42,3,12.3,12.3,0,0,0-.05,3.36c.1,1.13.25,2.29.28,3.49a14.66,14.66,0,0,1-.09,1.81l-.11.9-.18.89a7.08,7.08,0,0,1-.22.88l-.26.87a17.54,17.54,0,0,1-.7,1.67,18.22,18.22,0,0,1-1.89,3.1,16.6,16.6,0,0,1-1.2,1.38l-.64.65-.69.6a7.56,7.56,0,0,1-.71.57l-.74.54a18.17,18.17,0,0,1-1.58.94,16.07,16.07,0,0,1-3.43,1.31,18.19,18.19,0,0,1-3.61.49,20.58,20.58,0,0,1-3.6-.23c-.6-.07-1.18-.21-1.76-.32s-1.16-.28-1.72-.47a42.77,42.77,0,0,1-12.36-6.45,63.76,63.76,0,0,0,12.75,5,22.73,22.73,0,0,0,6.61.65,18,18,0,0,0,3.23-.49,14.39,14.39,0,0,0,3-1.19A16.43,16.43,0,0,0,47,50.63a15.52,15.52,0,0,0,.57-3.25c.07-1.11,0-2.26,0-3.43a12.22,12.22,0,0,1,.47-3.52A5.68,5.68,0,0,1,50,37.52Z"/><path class="cls-1" d="M39.9,45.56a1.09,1.09,0,0,0-.69-.24c-.25,0-.5,0-.75,0l-1.53,0a20,20,0,0,1-3.15-.17,5.07,5.07,0,0,1-1.71-.55,2.14,2.14,0,0,1-.86-.88l-.07-.16,0-.11L31,43.23a3.73,3.73,0,0,1-.13-.44A5.33,5.33,0,0,1,30.78,41c.06-.59.2-1.11.28-1.56a2.68,2.68,0,0,0,0-1.14l0-.13L31,38c0-.11-.06-.22-.1-.33s-.16-.44-.25-.66c-.35-.88-.83-1.75-1.28-2.7a9.82,9.82,0,0,1-.6-1.52,4.68,4.68,0,0,1-.16-.86c0-.28,0-.54,0-.81a13.46,13.46,0,0,1,.46-3.1c.14,1,.26,2,.47,3,.05.24.1.49.17.71a3.57,3.57,0,0,0,.25.61,13.46,13.46,0,0,0,.74,1.23,23.22,23.22,0,0,1,1.62,2.69c.12.24.23.5.33.76s.1.26.14.39l.07.2.07.24a4.49,4.49,0,0,1,0,1.9,6.82,6.82,0,0,0-.28,2.67,2.17,2.17,0,0,0,.06.3l0,.15,0,.08v0s0,.11.18.21a4.16,4.16,0,0,0,1.15.51c.91.28,1.91.48,2.91.7.5.12,1,.23,1.51.39a7.21,7.21,0,0,1,.75.28A1.13,1.13,0,0,1,39.9,45.56Z"/><path class="cls-1" d="M21.63,16.54a58.46,58.46,0,0,0-4.41,6.26,22.08,22.08,0,0,0-2.73,6.93A16.12,16.12,0,0,0,14.73,37c.16.59.33,1.17.55,1.74s.47,1.17.7,1.75c.49,1.16,1,2.31,1.59,3.41a17.48,17.48,0,0,0,4.36,5.79,13.7,13.7,0,0,0,6.65,2.67c.31.06.62.09.93.14s.63.09.92.11a8.78,8.78,0,0,0,1.78,0A8.13,8.13,0,0,0,35.6,51.4a10.27,10.27,0,0,0,2.76-2.46,9.66,9.66,0,0,0,1-1.58,6.05,6.05,0,0,0,.39-.87,1.71,1.71,0,0,0,.12-.93,1.68,1.68,0,0,1,0,1,6.27,6.27,0,0,1-.26.94,9.9,9.9,0,0,1-.86,1.77,10.57,10.57,0,0,1-2.67,2.94,9.15,9.15,0,0,1-3.72,1.63,8.86,8.86,0,0,1-2.05.16c-.35,0-.67,0-1-.06s-.65,0-1-.09A17.9,17.9,0,0,1,24.46,53a12.18,12.18,0,0,1-3.64-1.91,18.88,18.88,0,0,1-4.94-6.33c-.6-1.17-1.13-2.37-1.62-3.58A24.35,24.35,0,0,1,13,37.41a16.81,16.81,0,0,1,.07-8,19.28,19.28,0,0,1,1.37-3.74,24.86,24.86,0,0,1,2-3.37A40.06,40.06,0,0,1,21.63,16.54Z"/><path class="cls-1" d="M28.72,24.05a14.88,14.88,0,0,0,.22,2.43,15.42,15.42,0,0,0,.57,2.34,10.41,10.41,0,0,0,2.34,4.05,8.28,8.28,0,0,0,3.92,2.27l.56.13.57.1a4.21,4.21,0,0,0,.56.07,4.3,4.3,0,0,0,.56,0,8.07,8.07,0,0,0,2.22-.29,13.37,13.37,0,0,0,7.16-5.46,13.44,13.44,0,0,0,1.91-4.12,9.14,9.14,0,0,0,.31-2.2,8.35,8.35,0,0,0-.06-1.09c0-.37-.13-.77-.19-1.15a16.28,16.28,0,0,0-3.81-8.29,14.49,14.49,0,0,0-8-4.29,12,12,0,0,0-9,1.22,16.81,16.81,0,0,0-3.66,3.06c-1.1,1.18-2.12,2.47-3.26,3.64,1-1.3,1.84-2.69,2.85-4A16.84,16.84,0,0,1,28,9.05a11.83,11.83,0,0,1,4.69-2C33.15,7,33.58,7,34,6.93l1.28,0c.43,0,.85.06,1.27.09.21,0,.43,0,.64.06l.62.1c.41.08.84.12,1.25.23l1.24.32a17.59,17.59,0,0,1,2.39.94,14.61,14.61,0,0,1,4.19,3A15.42,15.42,0,0,1,49.74,16a21.21,21.21,0,0,1,1.51,4.88c.06.42.14.82.19,1.26a10.23,10.23,0,0,1,.06,1.35,11,11,0,0,1-.39,2.63,14.64,14.64,0,0,1-2.24,4.68,16.5,16.5,0,0,1-3.6,3.67,12.43,12.43,0,0,1-4.68,2.2,9.5,9.5,0,0,1-2.63.22,10.22,10.22,0,0,1-2.55-.51,9.31,9.31,0,0,1-4.26-2.85A10.85,10.85,0,0,1,29,29,14.92,14.92,0,0,1,28.72,24.05Z"/><path class="cls-1" d="M37.59,47.7a16.55,16.55,0,0,1-3.79,2.15,13,13,0,0,1-4.3,1,9.27,9.27,0,0,1-4.4-.86,10,10,0,0,1-3.47-2.85,15.75,15.75,0,0,1-1.27-1.82c-.19-.32-.4-.63-.56-1l-.48-1a17.06,17.06,0,0,1-1.23-4.24,18.83,18.83,0,0,1,.63-8.65,22.56,22.56,0,0,0,.1,8.52,17.6,17.6,0,0,0,3.55,7.56,9.23,9.23,0,0,0,3.13,2.64,8.91,8.91,0,0,0,4,.92,13.74,13.74,0,0,0,4.16-.67A19.23,19.23,0,0,0,37.59,47.7Z"/><path class="cls-1" d="M28.93,38.86a2.82,2.82,0,0,1,1.69-1,4.55,4.55,0,0,1,2,0,3,3,0,0,1,1.78,1c.41.54.74,1.06,1.13,1.53a4.11,4.11,0,0,0,.61.61,1.08,1.08,0,0,0,.59.27.67.67,0,0,0,.47-.24,9,9,0,0,1,.78-.66A7.08,7.08,0,0,1,41.9,39,7.35,7.35,0,0,1,44,39.2a5.12,5.12,0,0,1,.55.17l.29.13.26.15a4.44,4.44,0,0,1,.94.72,5.82,5.82,0,0,1,1.23,1.89,8.63,8.63,0,0,1,.54,2,17.41,17.41,0,0,1,.07,4c-.09,1.3-.36,2.57-.5,3.83l-.19,0a9.85,9.85,0,0,1-.45-1.93c-.1-.64-.18-1.28-.26-1.91-.16-1.26-.32-2.49-.58-3.65a7.91,7.91,0,0,0-1.2-3,2.68,2.68,0,0,0-.52-.51l-.15-.1-.14-.08a3.46,3.46,0,0,0-.35-.14,5.15,5.15,0,0,0-1.65-.28,6,6,0,0,0-3.28.91,7.67,7.67,0,0,0-.73.52,2.07,2.07,0,0,1-.56.33,1.56,1.56,0,0,1-.71.08,2,2,0,0,1-1.09-.58,5,5,0,0,1-.67-.81c-.38-.55-.67-1.14-1-1.66a2.41,2.41,0,0,0-1.4-.94,4.33,4.33,0,0,0-1.81-.15,2.56,2.56,0,0,0-1.6.8Z"/></g></svg>