<svg xmlns="http://www.w3.org/2000/svg" viewBox="0 0 83.36 23.8"><defs><style>.cls-1{fill:#072955;}.cls-2{fill:#e5131c;}</style></defs><title>banco</title><g id="Capa_9" data-name="Capa 9"><path class="cls-1" d="M55.78,16q0-3.41,0-6.83,0-.21,0-.41c0-.16,0-.18.19-.18h6.78c.21,0,.22,0,.27.22s.21.65.3,1a4.14,4.14,0,0,0,.14.6,1.71,1.71,0,0,1,.15.65.53.53,0,0,0,.08.18,2.72,2.72,0,0,1,.28.88,2.81,2.81,0,0,0,.11.47c.12.34.21.69.32,1s.14.48.21.72.16.63.23,1a1.19,1.19,0,0,0,.11.32,4.94,4.94,0,0,1,.33,1.11c.08.31.16.62.26.92a4.27,4.27,0,0,1,.23.76.45.45,0,0,0,0,.11.08.08,0,0,0,0,0,.07.07,0,0,0,.07,0,.32.32,0,0,0,0-.09,8,8,0,0,1,.38-1.41c.2-.61.33-1.25.55-1.86s.35-1.32.55-2c.07-.22.14-.43.22-.64a7.52,7.52,0,0,0,.24-.9c.07-.33.2-.63.3-1s.17-.63.25-.94.16-.62.25-.92.09-.2.27-.2h3.29a.55.55,0,0,1,.14,0c.07,0,.11.07.07.14a2.87,2.87,0,0,0-.28.77,4,4,0,0,1-.27.77,6.59,6.59,0,0,0-.31.93c-.14.42-.27.85-.44,1.27s-.23.71-.34,1.06-.22.52-.3.79-.2.66-.31,1-.23.61-.34.92-.26.81-.38,1.22a.36.36,0,0,1,0,.13,1.51,1.51,0,0,0-.25.63c-.16.58-.36,1.14-.58,1.7-.09.23-.15.46-.21.7-.12.44-.31.86-.46,1.29s-.18.58-.27.87a6.78,6.78,0,0,1-.27.65.15.15,0,0,1-.14.1H64.43c-.23,0-.27,0-.34-.25a5.06,5.06,0,0,0-.2-.68,17.92,17.92,0,0,1-.61-1.81c-.09-.26-.21-.5-.29-.77l-.37-1.2c-.08-.27-.22-.52-.3-.79s-.19-.63-.28-.94c0-.13-.13-.24-.17-.37-.09-.28-.19-.56-.27-.84-.15-.53-.34-1-.54-1.55-.09-.25-.14-.51-.23-.77a3.37,3.37,0,0,0-.15-.38c-.18-.4-.25-.83-.39-1.24s-.21-.6-.33-.9-.2-.61-.29-.91-.1-.37-.16-.55l0-.13s0-.07-.08-.07-.07.06-.07.1a1.1,1.1,0,0,0,0,.14q0,5.08,0,10.16,0,1.64,0,3.29s0,0,0,0c0,.4,0,.39-.38.39H56.26l-.25,0c-.19,0-.22,0-.23-.23s0-.44,0-.66q0-3.3,0-6.6Z"/><path class="cls-1" d="M33.9,13.5c0,1.51,0,3,0,4.52a5.87,5.87,0,0,1-.15,1.33c0,.21-.07.42-.11.63a4.39,4.39,0,0,1-.58,1.48,4.34,4.34,0,0,1-1.92,1.69,5.21,5.21,0,0,1-1,.39,8.09,8.09,0,0,1-2,.26c-.29,0-.58,0-.87,0a5.26,5.26,0,0,1-1.2-.16A4.76,4.76,0,0,1,25,23.35a6.63,6.63,0,0,1-1.23-.64A4.73,4.73,0,0,1,22.39,21a5.55,5.55,0,0,1-.32-1,9.74,9.74,0,0,1-.29-2.71q0-4.23,0-8.45c0-.36,0-.34.34-.34h3.08c.19,0,.2,0,.2.21q0,4.57,0,9.14a5.89,5.89,0,0,0,.13,1.22,2.06,2.06,0,0,0,.7,1.15,1.35,1.35,0,0,0,.62.29A4.28,4.28,0,0,0,29,20.49a1.53,1.53,0,0,0,.87-.73,2.82,2.82,0,0,0,.38-1.3c0-.42,0-.84,0-1.25q0-4.24,0-8.47c0-.2,0-.2.21-.2h3.27c.1,0,.15.05.15.16s0,.2,0,.3q0,2.25,0,4.5Z"/><path class="cls-1" d="M76.26,8.54h1.64c.24,0,.24,0,.32.23s.2.57.29.87a6.33,6.33,0,0,0,.34.89c.12.26.16.54.26.8a5.78,5.78,0,0,0,.21.55,3.65,3.65,0,0,1,.24.64c.23.83.59,1.61.84,2.43,0,.1.06.21.09.31.11.32.26.63.36,1,.26.86.64,1.68.87,2.54,0,.16.14.29.19.43.12.33.22.66.33,1,0,.12.07.23.12.35a15.2,15.2,0,0,1,.55,1.59,5.68,5.68,0,0,0,.28.72,2.76,2.76,0,0,1,.15.43c0,.12,0,.17-.14.17H79.75c-.16,0-.24-.05-.27-.2-.06-.32-.24-.59-.32-.9s-.15-.46-.2-.7-.27-.64-.34-1c0-.14-.09-.18-.25-.18H74a.31.31,0,0,0-.34.23,3.51,3.51,0,0,0-.18.58,4.25,4.25,0,0,1-.18.58c-.14.45-.32.89-.46,1.35-.06.19-.09.22-.29.22H69.21c-.18,0-.19,0-.13-.22s.16-.48.25-.71.16-.35.22-.54c.13-.42.26-.84.43-1.25s.27-.76.41-1.14c0-.1.06-.2.09-.31a4.46,4.46,0,0,1,.22-.55,8.37,8.37,0,0,0,.34-1,2,2,0,0,1,.1-.28,7.63,7.63,0,0,0,.41-1.11,7.64,7.64,0,0,1,.37-1c.18-.39.26-.81.42-1.21s.31-.76.43-1.15.18-.52.25-.78a2.06,2.06,0,0,1,.12-.29,8.55,8.55,0,0,0,.37-1.08,5.23,5.23,0,0,1,.26-.66c.16-.35.24-.72.38-1.08a2.44,2.44,0,0,0,.11-.35.22.22,0,0,1,.25-.18h1.76Zm-.08,8.88h1.23c.13,0,.17-.05.12-.17-.12-.3-.2-.62-.29-.93-.18-.59-.37-1.17-.57-1.76-.14-.41-.24-.83-.37-1.25,0-.06,0-.15-.12-.14a.14.14,0,0,0-.12.14c0,.09-.07.17-.08.25a5.59,5.59,0,0,1-.27,1A13.87,13.87,0,0,0,75.25,16a2.55,2.55,0,0,1-.22.67,2.4,2.4,0,0,0-.21.57c-.05.19,0,.22.18.22Z"/><path class="cls-1" d="M20.5,16q0,3.54,0,7.08a2.13,2.13,0,0,1,0,.25c0,.15-.05.19-.21.18s-.32,0-.48,0H13.87c-.22,0-.25,0-.25-.25,0-1,0-2.09,0-3.13,0-1.45,0-2.91,0-4.36a2.61,2.61,0,0,1,.24-1.1c.21-.48.33-1,.51-1.49.09-.25.21-.48.29-.74s.2-.62.3-.93a2.18,2.18,0,0,1,.09-.23,8.31,8.31,0,0,0,.37-1,4.13,4.13,0,0,1,.32-.88A2.73,2.73,0,0,0,16,8.74c.06-.19.08-.21.27-.21h4.09c.17,0,.19,0,.19.17q0,3.62,0,7.24Z"/><path class="cls-1" d="M6.85,15.49q0,1.45,0,2.9,0,2.34,0,4.68s0,.06,0,.09c0,.29,0,.3-.3.26a5.7,5.7,0,0,0-.62,0H.2c-.16,0-.18,0-.2-.18a1,1,0,0,1,0-.11Q0,16,0,8.8s0-.08,0-.11,0-.15.15-.14H3.9a.21.21,0,0,1,.21.13c0,.11.1.22.14.34a5.56,5.56,0,0,0,.37.83,2.43,2.43,0,0,1,.14.36,7.69,7.69,0,0,0,.35.84,9.31,9.31,0,0,1,.42,1.06,2.37,2.37,0,0,0,.19.44,3.09,3.09,0,0,1,.29.67c.13.42.36.8.53,1.21a3.94,3.94,0,0,0,.27.67A1.69,1.69,0,0,1,6.85,15.49Z"/><path class="cls-1" d="M48.67,8.54h5.89c.16,0,.18,0,.18.18q0,1.31,0,2.63s0,.09,0,.14,0,.18-.2.18H50.78c-.37,0-.35-.07-.35.35q0,5.08,0,10.17c0,.34,0,.67,0,1s0,.26-.27.26H47.09c-.21,0-.26-.06-.26-.27q0-2.67,0-5.35,0-2.95,0-5.89s0-.09,0-.14a.13.13,0,0,0-.14-.14h-4c-.17,0-.22-.08-.22-.25q0-.89,0-1.78c0-.29,0-.58,0-.87s0-.2.19-.22h6Z"/><path class="cls-1" d="M35.11,16q0-3.52,0-7c0-.06,0-.12,0-.18s0-.19.17-.2h3.22c.18,0,.2,0,.2.19q0,5.35,0,10.69c0,.21,0,.41,0,.62s0,.21.2.21h6.76c.14,0,.19,0,.2.18s0,.11,0,.16q0,1.28,0,2.56c0,.05,0,.11,0,.16a.14.14,0,0,1-.15.14h-10a3.72,3.72,0,0,1-.39,0c-.15,0-.21-.09-.19-.23a7.73,7.73,0,0,0,0-.89q0-3.19,0-6.37Z"/><path class="cls-2" d="M9.57,21.73c0-.14.08-.29.13-.43.15-.49.34-1,.53-1.43.09-.22.13-.45.22-.67s.2-.52.31-.78a5.73,5.73,0,0,0,.21-.6,15.67,15.67,0,0,1,.54-1.47c.07-.18.13-.36.18-.54.11-.36.26-.69.4-1s.17-.5.26-.76a5.79,5.79,0,0,1,.25-.66A12.9,12.9,0,0,0,13,12.09a.87.87,0,0,1,.05-.15,6.26,6.26,0,0,0,.43-1.15c.11-.33.25-.65.37-1s.33-.95.51-1.42.27-.68.38-1c.23-.72.55-1.41.76-2.14a7.77,7.77,0,0,1,.38-1C16,4.14,16,4,16,3.87c.23-.6.48-1.18.66-1.8a9.27,9.27,0,0,1,.37-.93c.1-.24.15-.51.24-.76s.07-.2.28-.2h.91c.15,0,.2,0,.15.2a6.05,6.05,0,0,1-.23.69q-.29.71-.54,1.43c-.12.35-.22.7-.37,1a8.35,8.35,0,0,0-.42,1.22c0,.08-.09.12-.12.19a5.09,5.09,0,0,0-.22.57,14.69,14.69,0,0,1-.5,1.42,6,6,0,0,0-.31.9,2.68,2.68,0,0,1-.21.53,10.41,10.41,0,0,0-.38,1.1c-.12.38-.3.73-.43,1.11s-.22.73-.37,1.08-.25.58-.35.89-.19.53-.27.8c0,.1-.1.19-.13.29-.14.36-.25.73-.38,1.1a6.24,6.24,0,0,1-.31.81,2,2,0,0,0-.15.38c-.12.46-.32.9-.49,1.35s-.27.88-.45,1.29-.35,1-.56,1.54-.29.77-.43,1.15c-.23.65-.49,1.28-.69,1.93,0,.06,0,.13-.11.13s-.1-.06-.12-.12c-.2-.44-.37-.9-.54-1.35C9.59,21.81,9.58,21.77,9.57,21.73Z"/><path class="cls-2" d="M16.35.2h.48c.15,0,.17,0,.14.18a.36.36,0,0,1,0,.09,13.75,13.75,0,0,0-.47,1.38c-.05.14-.12.28-.18.42-.14.29-.21.6-.32.9s-.14.38-.23.56a9.68,9.68,0,0,0-.32.92c-.11.33-.22.66-.36,1a9.14,9.14,0,0,0-.39,1.09c-.08.29-.22.55-.32.83a8.72,8.72,0,0,0-.28.84,6.08,6.08,0,0,1-.27.65c-.12.31-.24.63-.33.94a10.62,10.62,0,0,1-.43,1.13c-.1.23-.14.48-.24.71-.21.51-.42,1-.58,1.56a3.83,3.83,0,0,1-.27.75,6.57,6.57,0,0,0-.37,1.07c-.08.24-.21.46-.29.69-.15.45-.3.9-.47,1.35s-.37,1-.56,1.56-.35.86-.48,1.3a5.13,5.13,0,0,1-.33.89.79.79,0,0,1,0,.08c0,.07-.12.07-.16,0a2.32,2.32,0,0,1-.1-.3,3.55,3.55,0,0,0-.36-.8.68.68,0,0,1-.09-.69,7.2,7.2,0,0,0,.36-.88l.17-.57c.1-.33.28-.62.38-1s.27-.79.4-1.19a.74.74,0,0,1,0-.11,8.92,8.92,0,0,0,.41-1.13c.11-.29.23-.58.34-.87.19-.5.32-1,.54-1.5a13,13,0,0,0,.47-1.33c.06-.19.17-.37.24-.57.14-.43.29-.85.43-1.27a1.08,1.08,0,0,1,.08-.16,5,5,0,0,0,.36-1,2.15,2.15,0,0,1,.1-.33,10.62,10.62,0,0,0,.5-1.35c.14-.43.33-.85.48-1.28s.24-.63.32-1a1,1,0,0,1,.14-.31A2.72,2.72,0,0,0,14.7,3c.15-.42.29-.85.47-1.26a10.15,10.15,0,0,0,.33-1c.15-.5.15-.5.67-.5h.18Z"/><path class="cls-2" d="M15.29.39c-.06.16-.12.35-.2.53-.2.47-.35,1-.51,1.44-.07.19-.18.36-.24.56-.11.38-.25.75-.37,1.12,0,.09-.09.16-.12.25l-.56,1.63a.64.64,0,0,1,0,.11,5.78,5.78,0,0,0-.42,1.13c-.08.27-.21.52-.31.78s-.27.71-.36,1.08-.19.43-.27.65-.08.19-.11.29a10.49,10.49,0,0,1-.49,1.33,3.41,3.41,0,0,0-.23.65c-.12.47-.34.89-.49,1.35-.09.27-.19.53-.27.8s-.22.5-.32.76-.24.74-.37,1.1a1.86,1.86,0,0,1-.15.36,3.48,3.48,0,0,0-.23.62c-.11.29-.18.6-.3.89a6.37,6.37,0,0,0-.32.8c0,.1-.06.2-.09.31s0,.08-.06.09-.07,0-.08-.06a11.06,11.06,0,0,1-.62-1.47.28.28,0,0,1,0-.18A10.21,10.21,0,0,1,8.24,16c.19-.46.32-.93.48-1.4a1.46,1.46,0,0,1,.16-.35,2,2,0,0,0,.22-.62,9.56,9.56,0,0,1,.45-1.22c.13-.32.23-.66.33-1a2.51,2.51,0,0,1,.11-.3c.17-.37.3-.76.43-1.15S10.8,9,11,8.54s.5-1.24.7-1.88c.13-.43.33-.83.47-1.26s.21-.58.3-.88a7.57,7.57,0,0,1,.34-.87c.07-.17.11-.35.17-.52a4.67,4.67,0,0,1,.22-.58,8.38,8.38,0,0,0,.37-1c.13-.4.28-.79.44-1.17A.24.24,0,0,1,14.2.19h.94C15.27.19,15.31.24,15.29.39Z"/><path class="cls-2" d="M6.85,15.49a1.69,1.69,0,0,0,0-.4c.14-.1.17-.26.22-.41.14-.37.25-.75.4-1.11.23-.54.4-1.1.6-1.65.09-.25.19-.5.29-.74s.21-.6.31-.9a3.13,3.13,0,0,1,.24-.61A2.81,2.81,0,0,0,9.11,9a6,6,0,0,1,.32-.85,8.83,8.83,0,0,0,.33-.92c.12-.38.27-.76.43-1.13s.17-.5.26-.75.21-.59.32-.88.31-.82.43-1.25a.63.63,0,0,1,0-.11,12.11,12.11,0,0,0,.6-1.62c.08-.23.22-.43.29-.67s.09-.29.14-.43a.23.23,0,0,1,.24-.17h1c.1,0,.15.1.1.23a3.24,3.24,0,0,0-.12.34c-.11.41-.33.78-.46,1.19-.07.22-.14.45-.22.67-.15.43-.34.84-.48,1.28a9.45,9.45,0,0,1-.38,1.05A8.54,8.54,0,0,0,11.56,6a5.86,5.86,0,0,1-.22.57c-.17.41-.28.83-.45,1.24-.24.6-.42,1.22-.67,1.82s-.38,1.1-.6,1.64a10.41,10.41,0,0,0-.45,1.21,4.18,4.18,0,0,1-.23.69c-.24.51-.37,1.06-.58,1.58-.08.22-.2.42-.27.65-.12.39-.25.77-.38,1.15a1,1,0,0,1-.06.15.15.15,0,0,1-.14.1c-.08,0-.08-.08-.1-.13-.13-.36-.26-.71-.41-1.06C7,15.56,7,15.48,6.85,15.49Z"/><path class="cls-2" d="M20.54,5.64H19.17c-.18,0-.21,0-.15-.2.13-.43.27-.85.43-1.27a8.14,8.14,0,0,0,.36-1,4,4,0,0,1,.31-.83,7.39,7.39,0,0,0,.32-.92s0-.06,0-.09c.15-.32.26-.66.38-1a.2.2,0,0,1,.2-.15h2.49a3.48,3.48,0,0,1,.48,0,1.15,1.15,0,0,1,.66.39.73.73,0,0,1,.12.52,1.86,1.86,0,0,1-.09.47,1.76,1.76,0,0,1-.83,1c-.08.05-.12.1,0,.18a1,1,0,0,1,.22,1.06,2.05,2.05,0,0,1-.48.87,1.09,1.09,0,0,1-.49.43.16.16,0,0,0-.07.06.76.76,0,0,1-.42.26,5.17,5.17,0,0,1-1.44.18h-.62Zm.71-.95c.14,0,.29,0,.43,0a1.34,1.34,0,0,0,1-.37.45.45,0,0,0,.19-.3,2.47,2.47,0,0,1,.07-.26.39.39,0,0,0-.34-.49,14.36,14.36,0,0,0-1.5,0,.18.18,0,0,0-.2.15,2.36,2.36,0,0,1-.12.3q-.16.39-.29.79c-.05.15,0,.21.16.21Zm.82-2.34h0a3.47,3.47,0,0,0,.59,0,1,1,0,0,0,.87-.63c.09-.28,0-.44-.27-.51l-.14,0a12.31,12.31,0,0,0-1.27,0,.22.22,0,0,0-.24.17c-.08.27-.2.52-.3.78s0,.22.16.23Z"/><path class="cls-2" d="M45,0h.32a1.47,1.47,0,0,1,1.24.64,1.59,1.59,0,0,1,.29,1.21,7.4,7.4,0,0,1-.43,1.51.9.9,0,0,1-.14.26,1.26,1.26,0,0,0-.15.23,3.34,3.34,0,0,1-1.17,1.28c-.1.07-.17.17-.27.24a2.38,2.38,0,0,1-.63.25,3.4,3.4,0,0,1-1.35.19,2.44,2.44,0,0,1-1-.32.35.35,0,0,1-.11-.08,2.59,2.59,0,0,1-.4-.66,2,2,0,0,1-.06-.68,3.11,3.11,0,0,1,.29-1.21c.12-.25.21-.52.32-.78A1.64,1.64,0,0,1,42,1.65c.07-.08.13-.17.19-.25A3.18,3.18,0,0,1,43,.62a2.7,2.7,0,0,1,.91-.44c.14,0,.24-.13.38-.15A5.76,5.76,0,0,1,45,0ZM43.2,4.79a1.47,1.47,0,0,0,1-.3l.13-.09A1.31,1.31,0,0,0,44.8,4,1.44,1.44,0,0,1,45,3.67a1,1,0,0,0,.25-.43,7.45,7.45,0,0,0,.32-1.14.67.67,0,0,0,0-.4,2.12,2.12,0,0,1-.08-.21.51.51,0,0,0-.35-.36,1.72,1.72,0,0,0-1.08,0,1.42,1.42,0,0,0-.68.43,2.68,2.68,0,0,0-.46.51,8.06,8.06,0,0,0-.52,1.16,2.92,2.92,0,0,0-.09.44.93.93,0,0,0,.13.7A.79.79,0,0,0,43.2,4.79Z"/><path class="cls-2" d="M33.65,3.78A1.84,1.84,0,0,0,34,3c.08-.25.16-.49.23-.74A1.62,1.62,0,0,1,34.39,2c.15-.32.23-.68.36-1s.16-.39.22-.6A.21.21,0,0,1,35.2.21h.73A.11.11,0,0,1,36,.32a.31.31,0,0,1,0,.13c-.17.41-.28.83-.46,1.24s-.23.71-.38,1.05c-.29.67-.47,1.38-.74,2.06-.09.23-.2.46-.27.7a.16.16,0,0,1-.18.13h-.8c-.2,0-.22,0-.26-.24-.07-.39-.14-.78-.22-1.17s-.14-.53-.21-.79-.17-.84-.25-1.25a.55.55,0,0,0,0-.09c0-.08-.08-.09-.13,0a.5.5,0,0,0-.06.12c-.22.63-.49,1.25-.66,1.89a8.38,8.38,0,0,0-.52,1.38.23.23,0,0,1-.22.16h-.78c-.1,0-.12-.06-.09-.16A4.54,4.54,0,0,1,30,4.86a3.78,3.78,0,0,0,.26-.7c.14-.47.32-.93.5-1.39s.27-.84.44-1.25.28-.74.4-1.11c.06-.18.11-.19.31-.18h.78c.18,0,.2,0,.23.21.09.47.2.93.31,1.4s.22.93.28,1.41A3.17,3.17,0,0,0,33.65,3.78Z"/><path class="cls-2" d="M29.11,2.91q0,1.2,0,2.4s0,.09,0,.14a.17.17,0,0,1-.17.18,9.45,9.45,0,0,1-1,0c-.11,0-.14-.06-.12-.2a4.76,4.76,0,0,0,0-.71c0-.18,0-.19-.2-.2H26.05c-.1,0-.16,0-.18.13a.08.08,0,0,1,0,0,5,5,0,0,0-.59.83.26.26,0,0,1-.21.11h-.89c-.15,0-.17-.06-.09-.19.24-.36.51-.69.76-1s.5-.73.76-1.08c.39-.51.76-1,1.13-1.57a10.72,10.72,0,0,0,.71-1c.1-.18.3-.3.4-.49S28,.21,28,.21h.89c.2,0,.23,0,.23.24s0,.49,0,.73C29.12,1.76,29.13,2.34,29.11,2.91ZM28,2.59h0c0-.26,0-.52,0-.77,0,0,0-.1-.06-.11s-.07,0-.08.06a3.44,3.44,0,0,1-.34.47,9.68,9.68,0,0,1-.55.81,3.35,3.35,0,0,0-.26.37c-.07.1,0,.15.09.16a8.92,8.92,0,0,0,1,0c.17,0,.18,0,.19-.19S28,2.86,28,2.59Z"/><path class="cls-2" d="M38,.45c.08-.11.21-.12.32-.16a2.8,2.8,0,0,1,1-.24,2.28,2.28,0,0,1,1.42.54.37.37,0,0,1,.1.13,1.67,1.67,0,0,1,.17,1.15.18.18,0,0,1-.21.16H40c-.16,0-.18,0-.18-.19a1.25,1.25,0,0,0-.06-.38.39.39,0,0,0-.3-.28,1.7,1.7,0,0,0-1.32.2,2.22,2.22,0,0,0-.38.39,2.79,2.79,0,0,0-.68,1.19,5,5,0,0,1-.19.54,1.06,1.06,0,0,0,.35,1.22.37.37,0,0,0,.17.07A1.56,1.56,0,0,0,39,4a.45.45,0,0,1,.45-.26,3.2,3.2,0,0,0,.71,0c.11,0,.15,0,.11.13a1.08,1.08,0,0,1-.22.39,2.08,2.08,0,0,0-.27.31,2,2,0,0,1-.57.52.43.43,0,0,0-.18.17.24.24,0,0,1-.12.1,3.39,3.39,0,0,1-1.66.41,2,2,0,0,1-1.07-.27.86.86,0,0,1-.3-.3,2.06,2.06,0,0,1-.18-1.63c.08-.3.16-.6.27-.89a2.64,2.64,0,0,1,.39-.77,5.38,5.38,0,0,1,.37-.51,3.6,3.6,0,0,1,1-.83l.11,0C37.93.53,38.06.62,38,.45Z"/><path class="cls-1" d="M38,.45c0,.17-.11.08-.18.1A.21.21,0,0,1,38,.45Z"/></g></svg>