<svg xmlns="http://www.w3.org/2000/svg" viewBox="0 0 168.52 42.27"><defs><style>.cls-1{fill:#fff;}</style></defs><title>logo</title><g id="menu"><path class="cls-1" d="M14.08,5a7.48,7.48,0,0,1,1.86-1.59,11.5,11.5,0,0,1,2.22-1.06,10.56,10.56,0,0,1,2.4-.55A5.63,5.63,0,0,1,23,2a10.27,10.27,0,0,0-2.37.27,19.22,19.22,0,0,0-2.27.66,22.58,22.58,0,0,0-2.19.9A19.53,19.53,0,0,0,14.08,5Z"/><path class="cls-1" d="M4.56,31.77A9.68,9.68,0,0,1,3,29.23a11.3,11.3,0,0,1-.81-2.89,11.57,11.57,0,0,1,0-3,10.48,10.48,0,0,1,.76-2.87,26,26,0,0,0-.27,2.91,17,17,0,0,0,.16,2.87,16.3,16.3,0,0,0,.64,2.8A21.1,21.1,0,0,0,4.56,31.77Z"/><path class="cls-1" d="M28.6,34.79a8.67,8.67,0,0,1-2,2.85,9,9,0,0,1-3,1.87,9.2,9.2,0,0,1-3.49.54,10.74,10.74,0,0,1-3.41-.69,19.18,19.18,0,0,0,3.41.2,10.85,10.85,0,0,0,3.27-.63,10.42,10.42,0,0,0,2.89-1.65A13.15,13.15,0,0,0,28.6,34.79Z"/><path class="cls-1" d="M12.66,5.37a11.64,11.64,0,0,1,2-2.41A11.48,11.48,0,0,1,17.3,1.21,14.67,14.67,0,0,1,23.52,0a21.48,21.48,0,0,1,3.16.24,14,14,0,0,1,3.12.81,18.21,18.21,0,0,1,5.43,3.38,15.32,15.32,0,0,1,3.86,5.13,12,12,0,0,1,1,6.35,10.3,10.3,0,0,1-2.71,5.76,8.41,8.41,0,0,1-2.58,1.86A15.21,15.21,0,0,0,32,24.78a4.93,4.93,0,0,1,1.3-.87c.47-.23.95-.43,1.38-.7a8.91,8.91,0,0,0,1.23-.88,9,9,0,0,0,1-1.08,10,10,0,0,0,2.2-5.45A11.36,11.36,0,0,0,38,10.06a13.48,13.48,0,0,0-1.55-2.53,16.23,16.23,0,0,0-2.06-2.16,17.39,17.39,0,0,0-5-3.22,12.82,12.82,0,0,0-2.86-.83,25.45,25.45,0,0,0-3-.35,14.89,14.89,0,0,0-6,.8,11.57,11.57,0,0,0-2.66,1.45l-.6.48c-.2.16-.37.35-.56.52l-.28.27c-.09.09-.17.19-.26.29Z"/><path class="cls-1" d="M7.78,37.33a14.58,14.58,0,0,1-3.94-2.88A13.8,13.8,0,0,1,1.15,30.3,14.63,14.63,0,0,1,0,25.44a16.25,16.25,0,0,1,.52-5,16.7,16.7,0,0,1,2-4.57A22,22,0,0,1,5.73,12.1C8,9.8,10.58,7.85,12.66,5.37A24.78,24.78,0,0,1,9.72,9.24c-1.09,1.2-2.22,2.36-3.28,3.54a24.11,24.11,0,0,0-2.86,3.74,16,16,0,0,0-1.81,4.27,15.3,15.3,0,0,0,.3,9.15A14.55,14.55,0,0,0,4.31,34,17.73,17.73,0,0,0,7.78,37.33Z"/><path class="cls-1" d="M32,24.78a3.85,3.85,0,0,0-.94,2A8.12,8.12,0,0,0,31,29c.06.75.17,1.51.19,2.3a9.68,9.68,0,0,1-.06,1.19l-.07.59-.12.59a4.68,4.68,0,0,1-.15.58l-.17.58a11.58,11.58,0,0,1-.47,1.11,12,12,0,0,1-1.25,2,11,11,0,0,1-.79.91l-.42.43-.45.4a5,5,0,0,1-.47.38l-.49.36a12,12,0,0,1-1,.62,10.61,10.61,0,0,1-2.27.86,12,12,0,0,1-2.38.32,13.59,13.59,0,0,1-2.38-.15c-.39,0-.78-.14-1.16-.21s-.76-.19-1.13-.31a28.25,28.25,0,0,1-8.17-4.26,42.11,42.11,0,0,0,8.42,3.31,15,15,0,0,0,4.37.43,11.89,11.89,0,0,0,2.13-.33,9.5,9.5,0,0,0,2-.78A10.85,10.85,0,0,0,30,33.43a10.25,10.25,0,0,0,.38-2.14c0-.73,0-1.49,0-2.27a8.07,8.07,0,0,1,.31-2.32A3.75,3.75,0,0,1,32,24.78Z"/><path class="cls-1" d="M25.32,30.09a.72.72,0,0,0-.45-.16l-.5,0h-1a13.2,13.2,0,0,1-2.08-.11,3.35,3.35,0,0,1-1.13-.36,1.42,1.42,0,0,1-.57-.58l0-.1,0-.07-.05-.14a2.46,2.46,0,0,1-.08-.29,3.52,3.52,0,0,1-.07-1.21c0-.39.13-.73.18-1a1.77,1.77,0,0,0,0-.75l0-.09,0-.11c0-.07,0-.15-.07-.22s-.11-.29-.16-.44c-.23-.58-.55-1.16-.84-1.78a6.49,6.49,0,0,1-.4-1,3.09,3.09,0,0,1-.11-.57c0-.19,0-.36,0-.54a8.89,8.89,0,0,1,.31-2c.09.68.17,1.35.31,2,0,.16.07.32.11.47a2.36,2.36,0,0,0,.17.4,8.89,8.89,0,0,0,.49.81,15.33,15.33,0,0,1,1.07,1.78c.08.16.15.33.22.5s.06.17.1.26l0,.13,0,.16a3,3,0,0,1,0,1.26A4.5,4.5,0,0,0,20.54,28a1.43,1.43,0,0,0,0,.2l0,.1v.05h0s0,.08.12.14a2.75,2.75,0,0,0,.76.34c.6.18,1.26.32,1.92.46.33.08.67.15,1,.26a4.76,4.76,0,0,1,.49.18A.75.75,0,0,1,25.32,30.09Z"/><path class="cls-1" d="M13.26,10.92a38.61,38.61,0,0,0-2.91,4.13,14.58,14.58,0,0,0-1.8,4.57,10.65,10.65,0,0,0,.15,4.79c.11.39.22.77.36,1.15s.31.77.46,1.15c.32.77.67,1.52,1.05,2.25a11.55,11.55,0,0,0,2.88,3.82,9,9,0,0,0,4.39,1.76l.62.09.61.07a5.8,5.8,0,0,0,1.18,0,5.37,5.37,0,0,0,2.24-.77,6.78,6.78,0,0,0,1.82-1.62,6.38,6.38,0,0,0,.68-1,4,4,0,0,0,.25-.57,1.13,1.13,0,0,0,.08-.61,1.11,1.11,0,0,1,0,.64,4.14,4.14,0,0,1-.17.62,6.54,6.54,0,0,1-.57,1.17,7,7,0,0,1-1.76,1.94,6,6,0,0,1-2.46,1.07,5.85,5.85,0,0,1-1.36.11c-.23,0-.45,0-.66,0l-.65-.06A11.82,11.82,0,0,1,15.12,35a8,8,0,0,1-2.41-1.26,12.47,12.47,0,0,1-3.26-4.18c-.4-.78-.75-1.57-1.07-2.36a16.08,16.08,0,0,1-.84-2.49,11.1,11.1,0,0,1,0-5.29A12.73,12.73,0,0,1,8.49,17a16.42,16.42,0,0,1,1.34-2.23A26.46,26.46,0,0,1,13.26,10.92Z"/><path class="cls-1" d="M17.94,15.89a9.83,9.83,0,0,0,.15,1.6A10.18,10.18,0,0,0,18.46,19,6.87,6.87,0,0,0,20,21.71a5.47,5.47,0,0,0,2.59,1.5l.37.09.38.06.37,0a2.84,2.84,0,0,0,.37,0,5.33,5.33,0,0,0,1.47-.19,8.83,8.83,0,0,0,4.73-3.6,8.88,8.88,0,0,0,1.26-2.72,6,6,0,0,0,.2-1.45,5.51,5.51,0,0,0,0-.72c0-.24-.08-.51-.12-.76a10.75,10.75,0,0,0-2.52-5.47,9.57,9.57,0,0,0-5.29-2.83,7.9,7.9,0,0,0-5.94.81,11.1,11.1,0,0,0-2.41,2c-.73.78-1.4,1.63-2.15,2.41.65-.86,1.22-1.77,1.89-2.63A11.12,11.12,0,0,1,17.49,6a7.81,7.81,0,0,1,3.1-1.29c.28,0,.56-.1.84-.11l.85,0c.28,0,.56,0,.84.06l.42,0,.41.07c.27.05.55.08.82.15l.82.21a11.62,11.62,0,0,1,1.58.62,9.65,9.65,0,0,1,2.77,2,10.18,10.18,0,0,1,1.89,2.84,14,14,0,0,1,1,3.22c0,.28.09.54.13.83a6.76,6.76,0,0,1,0,.89,7.27,7.27,0,0,1-.26,1.74,9.67,9.67,0,0,1-1.48,3.09,10.9,10.9,0,0,1-2.38,2.42,8.21,8.21,0,0,1-3.09,1.45,6.27,6.27,0,0,1-1.74.14A6.75,6.75,0,0,1,22.36,24a6.15,6.15,0,0,1-2.81-1.88,7.16,7.16,0,0,1-1.42-3A9.85,9.85,0,0,1,17.94,15.89Z"/><path class="cls-1" d="M23.8,31.5a10.93,10.93,0,0,1-2.5,1.42,8.59,8.59,0,0,1-2.84.64,6.12,6.12,0,0,1-2.9-.57,6.59,6.59,0,0,1-2.29-1.88,10.4,10.4,0,0,1-.84-1.2c-.12-.21-.26-.41-.37-.63l-.31-.66a11.27,11.27,0,0,1-.81-2.8,12.44,12.44,0,0,1,.42-5.71,14.9,14.9,0,0,0,.07,5.63,11.62,11.62,0,0,0,2.34,5,6.09,6.09,0,0,0,2.06,1.74,5.88,5.88,0,0,0,2.63.61,9.08,9.08,0,0,0,2.75-.44A12.7,12.7,0,0,0,23.8,31.5Z"/><path class="cls-1" d="M18.08,25.66A1.86,1.86,0,0,1,19.19,25a3,3,0,0,1,1.32,0,2,2,0,0,1,1.18.69c.27.35.49.7.75,1a2.72,2.72,0,0,0,.41.4.71.71,0,0,0,.39.18.44.44,0,0,0,.31-.16,5.92,5.92,0,0,1,.51-.44,4.67,4.67,0,0,1,2.58-.93,4.85,4.85,0,0,1,1.41.12l.36.11.19.08.17.1a2.93,2.93,0,0,1,.62.48,3.84,3.84,0,0,1,.81,1.25,5.7,5.7,0,0,1,.36,1.34,11.5,11.5,0,0,1,0,2.63c-.06.86-.24,1.69-.33,2.53l-.12,0a6.5,6.5,0,0,1-.3-1.27c-.07-.42-.12-.84-.17-1.26-.1-.83-.21-1.65-.38-2.41a5.23,5.23,0,0,0-.79-2,1.77,1.77,0,0,0-.34-.34l-.1-.07L28,27l-.23-.1a3.4,3.4,0,0,0-1.09-.18,4,4,0,0,0-2.17.6,5.07,5.07,0,0,0-.48.34,1.37,1.37,0,0,1-.37.22,1,1,0,0,1-.47.05,1.3,1.3,0,0,1-.72-.38A3.28,3.28,0,0,1,22,27c-.25-.37-.44-.76-.65-1.1a1.59,1.59,0,0,0-.93-.62,2.86,2.86,0,0,0-1.2-.1,1.69,1.69,0,0,0-1.06.53Z"/><path class="cls-1" d="M43.17,25.33h5.26a.7.7,0,0,1,.73.38.62.62,0,0,1,.08.29.67.67,0,0,1-.41.61,1.15,1.15,0,0,1-.39.05H44.37a.63.63,0,0,0-.64.46,1,1,0,0,0,0,.35v1.88a.77.77,0,0,0,.16.58.63.63,0,0,0,.51.23h4.06a.7.7,0,0,1,.73.38.62.62,0,0,1,.08.29.67.67,0,0,1-.41.62,1.15,1.15,0,0,1-.39.05H44.37a.63.63,0,0,0-.64.46,1,1,0,0,0,0,.34v1.88a.76.76,0,0,0,.16.58.63.63,0,0,0,.51.24h4.06a.71.71,0,0,1,.73.37.63.63,0,0,1,.08.3.67.67,0,0,1-.41.61,1.15,1.15,0,0,1-.39.05H43.17a.78.78,0,0,1-.59-.18.73.73,0,0,1-.21-.61V26.12a.75.75,0,0,1,.19-.58A.76.76,0,0,1,43.17,25.33Z"/><path class="cls-1" d="M52.92,28.47a2,2,0,0,1,1,.29q.71.48.71,1a.66.66,0,0,1-.34.57.72.72,0,0,1-.34.08.7.7,0,0,1-.5-.25.6.6,0,0,0-.52-.34h0a.56.56,0,0,0-.52.36.64.64,0,0,0,0,.22.65.65,0,0,0,.41.58q1.49,1,1.66,1.13a2.77,2.77,0,0,1,.39.39,2.39,2.39,0,0,1-.48,3.39,2.4,2.4,0,0,1-3.46-.69,1.23,1.23,0,0,1-.21-.58v0a.67.67,0,0,1,.28-.52.72.72,0,0,1,.37-.11.66.66,0,0,1,.58.34,2.25,2.25,0,0,0,.2.34,1.07,1.07,0,0,0,1.67,0,1.11,1.11,0,0,0,.21-.64,1.15,1.15,0,0,0-.68-1l-1.56-1.05A1.91,1.91,0,0,1,51.54,29,1.93,1.93,0,0,1,52.92,28.47Z"/><path class="cls-1" d="M57.39,28.49a.68.68,0,0,1,.54.31q.15.34.24.34s0,0,.12,0h0a1.58,1.58,0,0,0,.56-.26,4.13,4.13,0,0,1,1.78-.42,3.91,3.91,0,0,1,3.28,1.79,3.9,3.9,0,0,1,.64,2.12v0a3.92,3.92,0,0,1-.88,2.47,3.52,3.52,0,0,1-.69.67,3.8,3.8,0,0,1-.94.52,3.89,3.89,0,0,1-3.53-.34l-.15,0h-.05A.32.32,0,0,0,58,36v2.71a.68.68,0,0,1-.36.69.56.56,0,0,1-.31.09.67.67,0,0,1-.64-.46,1.06,1.06,0,0,1,0-.32V29.27a.72.72,0,0,1,.4-.73A.88.88,0,0,1,57.39,28.49ZM58,32.42a2.62,2.62,0,0,0,.71,1.81,2.58,2.58,0,0,0,1.85.8h.09a2.56,2.56,0,0,0,1.8-.76,2.62,2.62,0,0,0-.19-3.86,2.74,2.74,0,0,0-1.2-.54l-.36,0h-.18a2.62,2.62,0,0,0-1.36.44,2.68,2.68,0,0,0-1,1.39A2.94,2.94,0,0,0,58,32.42Z"/><path class="cls-1" d="M69.47,28.47a3.93,3.93,0,0,1,2.87,1.23,1.4,1.4,0,0,1,.44.74.37.37,0,0,0,0,.08.69.69,0,0,1-.22.48l-3.8,2.71-.62.45a.33.33,0,0,0-.09.21v0a.31.31,0,0,0,.16.25,2.61,2.61,0,0,0,1.17.31h.15a2.57,2.57,0,0,0,1.67-.66,2.53,2.53,0,0,0,.51-.63,2.71,2.71,0,0,0,.25-.58,1.09,1.09,0,0,1,.21-.52.7.7,0,0,1,.47-.21.64.64,0,0,1,.64.44.54.54,0,0,1,0,.21v0A3.24,3.24,0,0,1,73,34a3.89,3.89,0,0,1-1.2,1.49,4,4,0,0,1-2.29.8h-.12a4,4,0,0,1-2.29-.76,4.15,4.15,0,0,1-.87-.88,5.07,5.07,0,0,1-.4-.69,4.22,4.22,0,0,1-.34-1.58,4,4,0,0,1,.94-2.57,4.47,4.47,0,0,1,.64-.59A3.94,3.94,0,0,1,69.47,28.47Zm-2.6,3.92q0,.54.13.64a.35.35,0,0,0,.25.09,1,1,0,0,0,.43-.26l3.09-2.19a.33.33,0,0,0,.12-.25v0a.3.3,0,0,0-.15-.25,2.56,2.56,0,0,0-1.17-.32H69.4a2.58,2.58,0,0,0-2.53,2.58Z"/><path class="cls-1" d="M75,28.48a.73.73,0,0,1,.52.26.36.36,0,0,0,.18.05h0a1.18,1.18,0,0,0,.36-.13,2.91,2.91,0,0,1,1-.18,2.8,2.8,0,0,1,1.79.67l.14.15a10.79,10.79,0,0,1-.78.77.31.31,0,0,1-.17.05.7.7,0,0,1-.34-.15,1.45,1.45,0,0,0-.66-.15,1.4,1.4,0,0,0-1,.47,1.43,1.43,0,0,0-.38,1v4.32a.68.68,0,0,1-.24.6.59.59,0,0,1-.39.16H75a.65.65,0,0,1-.59-.44.94.94,0,0,1,0-.31V29.24a.68.68,0,0,1,.22-.58A.63.63,0,0,1,75,28.48Z"/><path class="cls-1" d="M81.92,28.49h2a2.62,2.62,0,0,1,1.7.64,2.67,2.67,0,0,1,.51.6,2.6,2.6,0,0,1,.4,1.37v4.59a.67.67,0,0,1-.31.54.73.73,0,0,1-.34.1.64.64,0,0,1-.62-.41.36.36,0,0,0-.34-.28,1.28,1.28,0,0,0-.46.22,4,4,0,0,1-1.78.46h-.1a2.57,2.57,0,0,1-1.84-.79,2.87,2.87,0,0,1-.46-.64A2.61,2.61,0,0,1,80,33.78v-.08a2.58,2.58,0,0,1,2.55-2.57h2.17q.28,0,.36-.15a.26.26,0,0,0,.06-.17v0a1.1,1.1,0,0,0-.28-.54,1.34,1.34,0,0,0-.48-.34,1.66,1.66,0,0,0-.69-.1H81.92a.65.65,0,0,1-.49-.25.64.64,0,0,1-.14-.37v-.05a.65.65,0,0,1,.63-.64Zm-.63,5.24a1.31,1.31,0,0,0,.44,1,1.27,1.27,0,0,0,.78.31h.13A2.56,2.56,0,0,0,84,34.6,2.61,2.61,0,0,0,85,33.23q.07-.27.1-.43v0a.33.33,0,0,0-.22-.3H82.51a1.27,1.27,0,0,0-.88.41A1.33,1.33,0,0,0,81.29,33.73Z"/><path class="cls-1" d="M88.56,28.48a.67.67,0,0,1,.55.3.38.38,0,0,0,.33.21,1.06,1.06,0,0,0,.36-.15,3.42,3.42,0,0,1,4.09.83,3.57,3.57,0,0,1,.83,2.43v3.47a.68.68,0,0,1-.26.63.63.63,0,0,1-.41.15.68.68,0,0,1-.48-.21.75.75,0,0,1-.18-.56V32.12a2.42,2.42,0,0,0-.19-1.1,2.12,2.12,0,0,0-1.2-1.1,2.32,2.32,0,0,0-.69-.11,2.07,2.07,0,0,0-1.56.71,2.1,2.1,0,0,0-.48,1,3.13,3.13,0,0,0,0,.64v3.44a.68.68,0,0,1-.26.63.61.61,0,0,1-.41.15.68.68,0,0,1-.48-.21.75.75,0,0,1-.18-.56v-6.3a.72.72,0,0,1,.19-.57A.66.66,0,0,1,88.56,28.48Z"/><path class="cls-1" d="M103,25.33h.05a.66.66,0,0,1,.58.4.79.79,0,0,1,.05.24v9.73a.64.64,0,0,1-.42.59.81.81,0,0,1-.25,0,.65.65,0,0,1-.61-.42.34.34,0,0,0-.32-.26h0a.51.51,0,0,0-.26.1,3.83,3.83,0,0,1-2,.58h-.11a3.91,3.91,0,0,1-2.25-.74,3.79,3.79,0,0,1-.93-1,3.91,3.91,0,0,1-.71-2.28,4,4,0,0,1,.73-2.25,3.7,3.7,0,0,1,1-1,3.76,3.76,0,0,1,1.17-.55,4.42,4.42,0,0,1,1.07-.14,4,4,0,0,1,2.11.63l.13,0a.34.34,0,0,0,.32-.25.85.85,0,0,0,0-.09V26.12a.73.73,0,0,1,.41-.74A.79.79,0,0,1,103,25.33Zm-5.84,7v.08A2.57,2.57,0,0,0,99.72,35h.14a2.55,2.55,0,0,0,1.64-.64,2.66,2.66,0,0,0,.48-.54,2.57,2.57,0,0,0,.41-1.37v-.08a2.59,2.59,0,0,0-2.53-2.55h-.14a2.57,2.57,0,0,0-1.64.64,2.6,2.6,0,0,0-.47.55A2.53,2.53,0,0,0,97.19,32.36Z"/><path class="cls-1" d="M109,28.47h.13a4,4,0,0,1,2.35.83,3.83,3.83,0,0,1,.73.75,3.94,3.94,0,0,1-.34,5.11,4,4,0,0,1-2.74,1.17H109a3.93,3.93,0,0,1-2.36-.84,3.82,3.82,0,0,1-.66-.67,3.87,3.87,0,0,1-.84-2.43,3.92,3.92,0,0,1,1-2.63,3.7,3.7,0,0,1,.75-.64A3.88,3.88,0,0,1,109,28.47Zm-2.53,3.93v.05A2.57,2.57,0,0,0,109,35h.1a2.57,2.57,0,0,0,2.55-2.54v-.05a2.58,2.58,0,0,0-.81-1.89A2.7,2.7,0,0,0,110,30a2.62,2.62,0,0,0-.81-.15H109a2.59,2.59,0,0,0-1.32.4,3.17,3.17,0,0,0-.58.49,2.55,2.55,0,0,0-.51.91A2.29,2.29,0,0,0,106.48,32.41Z"/><path class="cls-1" d="M121.91,28.48a3.88,3.88,0,0,1,2.24.7.67.67,0,0,1,.23.52.64.64,0,0,1-.34.56.77.77,0,0,1-.31.08,1.07,1.07,0,0,1-.57-.22,2.58,2.58,0,0,0-1.26-.31h0a2.58,2.58,0,0,0-1.24.35,2.64,2.64,0,0,0-1.16,1.41,2.7,2.7,0,0,0-.14.84,2.6,2.6,0,0,0,.84,1.91,2.69,2.69,0,0,0,1,.58,2.52,2.52,0,0,0,.65.1h.06a2.63,2.63,0,0,0,1.46-.44.75.75,0,0,1,.34-.09.69.69,0,0,1,.54.3.72.72,0,0,1,.11.36.69.69,0,0,1-.42.64,3.94,3.94,0,0,1-4.45-.26,4.37,4.37,0,0,1-.55-.54,3.18,3.18,0,0,1-.44-.63,3.88,3.88,0,0,1-.51-1.93,4,4,0,0,1,.8-2.37,5,5,0,0,1,.51-.56,4.18,4.18,0,0,1,.8-.55A4,4,0,0,1,121.91,28.48Z"/><path class="cls-1" d="M129.67,28.47h.13a4,4,0,0,1,2.35.83,3.83,3.83,0,0,1,.73.75,3.94,3.94,0,0,1-.34,5.11,4,4,0,0,1-2.74,1.17h-.13a3.93,3.93,0,0,1-2.36-.84,3.82,3.82,0,0,1-.66-.67,3.87,3.87,0,0,1-.84-2.43,3.92,3.92,0,0,1,1-2.63,3.7,3.7,0,0,1,.75-.64A3.88,3.88,0,0,1,129.67,28.47Zm-2.53,3.93v.05A2.57,2.57,0,0,0,129.68,35h.1a2.57,2.57,0,0,0,2.55-2.54v-.05a2.58,2.58,0,0,0-.81-1.89,2.7,2.7,0,0,0-.91-.56,2.62,2.62,0,0,0-.81-.15h-.15a2.59,2.59,0,0,0-1.32.4,3.17,3.17,0,0,0-.58.49,2.55,2.55,0,0,0-.51.91A2.29,2.29,0,0,0,127.14,32.41Z"/><path class="cls-1" d="M135.8,28.48a.67.67,0,0,1,.55.3.38.38,0,0,0,.33.21,1.06,1.06,0,0,0,.36-.15,3.42,3.42,0,0,1,4.09.83,3.57,3.57,0,0,1,.83,2.43v3.47a.68.68,0,0,1-.26.63.63.63,0,0,1-.41.15.68.68,0,0,1-.48-.21.75.75,0,0,1-.18-.56V32.12a2.42,2.42,0,0,0-.19-1.1,2.12,2.12,0,0,0-1.2-1.1,2.32,2.32,0,0,0-.69-.11,2.07,2.07,0,0,0-1.56.71,2.1,2.1,0,0,0-.48,1,3.13,3.13,0,0,0,0,.64v3.44a.68.68,0,0,1-.26.63.61.61,0,0,1-.41.15.68.68,0,0,1-.48-.21.75.75,0,0,1-.18-.56v-6.3a.72.72,0,0,1,.19-.57A.66.66,0,0,1,135.8,28.48Z"/><path class="cls-1" d="M144.08,25.34a.67.67,0,0,1,.61.41,1,1,0,0,1,0,.28v2.06q0,.29.2.36l.15,0h2.28a0,0,0,0,1,0,0v.93a.34.34,0,0,1-.21.35l-.13,0h-1.52a.7.7,0,0,0-.63.25.72.72,0,0,0-.16.54v3.6a.71.71,0,0,0,.23.63.67.67,0,0,0,.54.18h.38a0,0,0,0,1,0,0v1.3a0,0,0,0,1,0,0h-.78a1.67,1.67,0,0,1-1.46-.82,1.72,1.72,0,0,1-.22-.87V26a.66.66,0,0,1,.47-.66Z"/><path class="cls-1" d="M149.47,25.84h0a.8.8,0,0,1,.71.45.73.73,0,0,1,.08.34v.08a.8.8,0,0,1-.47.71.85.85,0,0,1-.35.08.81.81,0,0,1-.77-.52.72.72,0,0,1-.05-.26v-.07a.82.82,0,0,1,.8-.8Zm0,2.65h.11a.64.64,0,0,1,.48.26.68.68,0,0,1,.12.36v6.59a.66.66,0,0,1-.39.58.78.78,0,0,1-.24.05h-.06a.64.64,0,0,1-.54-.34.87.87,0,0,1-.09-.45V29.28a.71.71,0,0,1,.31-.69A.53.53,0,0,1,149.44,28.49Z"/><path class="cls-1" d="M158.61,28.49a.69.69,0,0,1,.48.22.76.76,0,0,1,.18.57v6.36a4,4,0,0,1-.61,2,4.34,4.34,0,0,1-.63.75,4,4,0,0,1-1,.71,4,4,0,0,1-1.63.38h-.07a.67.67,0,0,1-.54-.31.74.74,0,0,1-.11-.36.68.68,0,0,1,.33-.58,1.22,1.22,0,0,1,.59-.1,3.79,3.79,0,0,0,.62-.15,2.63,2.63,0,0,0,1.46-1.29,2.57,2.57,0,0,0,.28-1.15v-.19s0,0,0,0a3.84,3.84,0,0,1-1.64.86,4,4,0,0,1-.92.11,4,4,0,0,1-3-1.37,4,4,0,0,1-.89-1.91,5.12,5.12,0,0,1-.05-.59v-.14a4,4,0,0,1,.35-1.56,4.29,4.29,0,0,1,.51-.84,4.35,4.35,0,0,1,.82-.76,4,4,0,0,1,2.2-.71h.12a4,4,0,0,1,2,.56.55.55,0,0,0,.31.13q.25,0,.35-.34A.69.69,0,0,1,158.61,28.49Zm-5.89,3.9v.1a2.6,2.6,0,0,0,.8,1.84,3.31,3.31,0,0,0,.78.51,2.78,2.78,0,0,0,1,.21,2.59,2.59,0,0,0,2-.91,2.55,2.55,0,0,0,.63-1.65v-.1a2.6,2.6,0,0,0-.81-1.84,3,3,0,0,0-.77-.51,2.71,2.71,0,0,0-1-.21,2.59,2.59,0,0,0-2,.91A2.55,2.55,0,0,0,152.72,32.38Z"/><path class="cls-1" d="M164.53,28.47h.13a4,4,0,0,1,2.35.83,3.83,3.83,0,0,1,.73.75,3.94,3.94,0,0,1-.35,5.11,4,4,0,0,1-2.74,1.17h-.13a3.93,3.93,0,0,1-2.36-.84,3.82,3.82,0,0,1-.66-.67,3.87,3.87,0,0,1-.84-2.43,3.92,3.92,0,0,1,1-2.63,3.69,3.69,0,0,1,.75-.64A3.88,3.88,0,0,1,164.53,28.47ZM162,32.41v.05A2.57,2.57,0,0,0,164.55,35h.1a2.57,2.57,0,0,0,2.55-2.54v-.05a2.58,2.58,0,0,0-.81-1.89,2.7,2.7,0,0,0-.91-.56,2.62,2.62,0,0,0-.81-.15h-.15a2.59,2.59,0,0,0-1.32.4,3.16,3.16,0,0,0-.58.49,2.56,2.56,0,0,0-.51.91A2.29,2.29,0,0,0,162,32.41Z"/></g></svg>