<svg xmlns="http://www.w3.org/2000/svg" viewBox="0 0 97.33 23.8"><defs><style>.cls-1{fill:#253b80;}.cls-2{fill:#189bd6;}.cls-3{fill:#263c80;}.cls-4{fill:#222d65;}</style></defs><title>paypal</title><g id="Capa_9" data-name="Capa 9"><path class="cls-1" d="M5.18,21.15c-1.42,0-2.85,0-4.27,0a1,1,0,0,1-.91-.4v-.69c.11,0,.08-.15.09-.23q.42-2.67.84-5.34C1.64,10.06,2.35,5.62,3,1.18A1.32,1.32,0,0,1,3.89,0h8.93c.54.1,1.09.18,1.62.31A5,5,0,0,1,17.34,2a4.84,4.84,0,0,1,.81,4,.61.61,0,0,1-.32-.09,6.26,6.26,0,0,0-2.68-.59c-2.21,0-4.42,0-6.64,0a.88.88,0,0,0-.93.8c-.06.5-.16,1-.24,1.49C7,9.38,6.76,11.14,6.51,12.9c0,.24-.23.5,0,.76a2.15,2.15,0,0,0-.16.46Q5.76,17.64,5.18,21.15Z"/><path class="cls-2" d="M72.72,5.33a32.07,32.07,0,0,1,3.37.09,5.26,5.26,0,0,1,1.46.41,3.11,3.11,0,0,1,1.93,2.72,7.06,7.06,0,0,1-.88,4.11,5.19,5.19,0,0,1-4.4,2.6c-.82.08-1.65.06-2.48.06a.77.77,0,0,0-.9.76q-.29,1.77-.55,3.54c-.09.56-.21.68-.8.68H67.22c-.63,0-.78-.16-.68-.78.27-1.68.54-3.36.8-5Q68,10.3,68.66,6.12c.09-.58.32-.79.91-.8Zm-.22,7c.27,0,.53,0,.8,0a2,2,0,0,0,2.14-1.87,1.5,1.5,0,0,0-1.44-2,9.28,9.28,0,0,0-1.33,0c-.52,0-.63.1-.71.62-.12.76-.24,1.53-.36,2.29-.05.34-.25.79-.1,1S72.15,12.26,72.5,12.28Z"/><path class="cls-3" d="M34.53,15.31h-1.3a.73.73,0,0,0-.8.69q-.27,1.71-.54,3.42c-.1.66-.33.87-1,.87H28.66c-.45,0-.62-.21-.56-.65q1.06-6.72,2.11-13.43c.11-.71.32-.89,1-.89h5.64a5.77,5.77,0,0,1,1.61.25A3.31,3.31,0,0,1,41.1,9a7.26,7.26,0,0,1-.86,3.52,5.18,5.18,0,0,1-4.34,2.68c-.45,0-.91.05-1.37.08Zm-.45-3h.61A2.15,2.15,0,0,0,37.06,10a1.38,1.38,0,0,0-1.26-1.6,10.72,10.72,0,0,0-1.75-.08.44.44,0,0,0-.48.39c-.18,1.11-.35,2.23-.54,3.34,0,.21,0,.26.24.25S33.81,12.3,34.08,12.3Z"/><path class="cls-2" d="M5.18,21.15q.57-3.51,1.14-7a2.15,2.15,0,0,1,.16-.46,1.45,1.45,0,0,1,1.16-.45,26.69,26.69,0,0,0,4.07-.16c3.82-.63,5.89-3.33,6.37-6.79l0-.06.05-.11A3.17,3.17,0,0,1,20,8.61a7.81,7.81,0,0,1-2,6.6A6.41,6.41,0,0,1,14,17.09a15.3,15.3,0,0,1-1.9.09A1,1,0,0,0,11,18.1c-.26,1.56-.5,3.13-.75,4.7a1,1,0,0,1-1.14,1H5.61c-.59,0-.8-.26-.71-.84S5.09,21.75,5.18,21.15Z"/><path class="cls-2" d="M86.55,19.11a5,5,0,0,1-2.81,1.37c-3.5.45-5-1.83-5-4.16a6.07,6.07,0,0,1,4.67-6.13,5.86,5.86,0,0,1,3,.13,2.27,2.27,0,0,1,1.35,1l.07,0c.15-1.07.17-1,1.21-1h1.68c.59,0,.73.15.64.74-.21,1.37-.43,2.73-.64,4.1s-.44,2.76-.65,4.14c-.13.84-.3,1-1.16,1H87.08c-.52,0-.67-.19-.59-.71C86.51,19.46,86.52,19.33,86.55,19.11Zm-2.14-1.32a2.85,2.85,0,0,0,2.84-2.15,2.08,2.08,0,0,0-1.72-2.82,2.89,2.89,0,0,0-3.22,2.32A2,2,0,0,0,84.41,17.79Z"/><path class="cls-3" d="M49.35,11.36c0-.12.05-.21.07-.29.14-.76.14-.76.9-.76h2.06c.45,0,.62.21.55.65L51.57,19.5a.8.8,0,0,1-.92.79h-2c-.52,0-.64-.14-.6-.67a.75.75,0,0,0,0-.37c-.13,0-.18.09-.25.14A5,5,0,0,1,43,20.3a3.68,3.68,0,0,1-2.63-3.16,6.1,6.1,0,0,1,4.59-7,6,6,0,0,1,3,.13A2.46,2.46,0,0,1,49.35,11.36ZM46,17.79a2.87,2.87,0,0,0,2.88-2.38,2,2,0,0,0-1.72-2.58,2.9,2.9,0,0,0-3.31,2.44A2,2,0,0,0,46,17.79Z"/><path class="cls-3" d="M59.46,15.89c1.16-1.71,2.3-3.37,3.41-5a1.09,1.09,0,0,1,1-.56c.71,0,1.42,0,2.14,0,.24,0,.46,0,.59.26s0,.41-.12.59L58.07,23.34a1,1,0,0,1-.86.46H55c-.24,0-.46,0-.58-.27s0-.41.13-.59c.78-1.1,1.55-2.2,2.34-3.29a.73.73,0,0,0,.12-.76c-.89-2.56-1.76-5.13-2.63-7.7a2.3,2.3,0,0,1-.09-.29.44.44,0,0,1,.46-.59q1.26,0,2.52,0c.4,0,.62.22.76.68l1.37,4.59C59.38,15.67,59.41,15.75,59.46,15.89Z"/><path class="cls-4" d="M18.17,6.08l-.05.11a.07.07,0,0,0,0,.07c-.48,3.46-2.55,6.16-6.37,6.79a26.69,26.69,0,0,1-4.07.16,1.45,1.45,0,0,0-1.16.45c-.2-.26,0-.52,0-.76.25-1.76.54-3.51.82-5.27.08-.5.17-1,.24-1.49a.88.88,0,0,1,.93-.8c2.21,0,4.42,0,6.64,0a6.26,6.26,0,0,1,2.68.59.61.61,0,0,0,.32.09A.07.07,0,0,1,18.17,6.08Z"/><path class="cls-2" d="M95.65,5.33H96.8c.41,0,.58.21.52.6L95.4,18.08c-.08.51-.15,1-.25,1.54a.72.72,0,0,1-.78.67h-2.1c-.41,0-.56-.2-.5-.62q.51-3.33,1-6.66.56-3.55,1.12-7.11c.08-.49.17-.58.66-.58Z"/><path class="cls-1" d="M18.09,6.26a.07.07,0,0,1,0-.07Z"/></g></svg>